<?xml version="1.0" standalone="no"?>
<!DOCTYPE svg PUBLIC "-//W3C//DTD SVG 1.1//EN" "http://www.w3.org/Graphics/SVG/1.1/DTD/svg11.dtd" >
<svg xmlns="http://www.w3.org/2000/svg">
<metadata>
This is a custom SVG webfont generated by Font Squirrel.
Copyright   : c 1997 Ray Larabie See attached license agreement for more information If EULA is missing visit wwwlarabiefontscom for an updated version of this font
Designer    : Ray Larabie
Foundry     : Ray Larabie
Foundry URL : httpwwwlarabiefontscom
</metadata>
<defs>
<font id="webfont5xGiZSm2" horiz-adv-x="509" >
<font-face units-per-em="2048" ascent="1638" descent="-410" />
<missing-glyph horiz-adv-x="190" />
<glyph unicode=" "  horiz-adv-x="190" />
<glyph unicode="&#x09;" horiz-adv-x="190" />
<glyph unicode="&#xa0;" horiz-adv-x="190" />
<glyph unicode="!" horiz-adv-x="344" d="M98 0v164h146v-164h-146zM98 293v1378h146v-1378h-146z" />
<glyph unicode="&#x22;" horiz-adv-x="446" d="M61 1288v385h113v-385h-113zM272 1288v385h113v-385h-113z" />
<glyph unicode="#" horiz-adv-x="929" d="M23 907l6 115h213v643h143v-643h168v645h143v-643h201v-117h-209v-170h219l-8 -114h-215v-623h-133v623h-178v-623h-133v623h-209l4 114h211v170h-223zM377 735h180v172h-180v-172z" />
<glyph unicode="$" horiz-adv-x="473" d="M43 -16v352h152v-359q0 -61 43 -61t43 61v105l-2 4q0 2 -1.5 11t-3.5 23l-5 33q-3 19 -6 42l-7 51l-18 123l-50 192q-23 82 -84 346t-61 277v108q0 143 102 178v177h70v-162l39 -4v166h68v-172q113 -37 112 -183v-327h-153v340q0 61 -43 61q-39 0 -45 -49q2 0 2 -2l-2 -8 v-23q0 -113 65 -393l102 -447q27 -156 60 -251q14 -49 14 -78v-131q0 -147 -112 -185v-190h-68v178q-25 0 -39 2v-180h-70v194q-102 38 -102 181z" />
<glyph unicode="%" horiz-adv-x="765" d="M39 1049v442q0 174 149.5 174t149.5 -174v-442q0 -174 -149.5 -174t-149.5 174zM156 1012q0 -47 32 -47q35 0 35 47v516q0 45 -35 45q-33 0 -32 -43v-518zM172 0l363 1665h71l-362 -1665h-72zM426 152v356q0 176 149 176q147 0 148 -176v-356q0 -174 -148 -175 q-149 1 -149 175zM541 113q0 -45 32.5 -45t32.5 45v438q0 41 -32.5 41t-32.5 -41v-438z" />
<glyph unicode="&#x26;" horiz-adv-x="575" d="M53 229v193q0 408 19 438q18 35 63 78q-53 90 -53 168v410q0 76 53 118.5t135 42.5q174 0 174 -161v-410q0 -100 -151 -209l80 -360v321h135v-657q0 -41 -16 -84h47v-117h-97q-29 0 -45 18q-55 -31 -118 -30q-226 -1 -226 241zM182 774l23 -547q2 -76 16.5 -100.5 t52.5 -24.5q29 0 66 15q-35 154 -113 473zM225 1104q0 -12 9.5 -48t9.5 -44q66 47 65 90v414q-4 59 -39 59q-45 0 -45 -66v-405z" />
<glyph unicode="'" horiz-adv-x="243" d="M61 1296v381h113v-381h-113z" />
<glyph unicode="(" horiz-adv-x="319" d="M35 801q0 213 37 567t90 469h125q-57 -117 -92 -467t-35 -569q0 -223 33.5 -574.5t95.5 -459.5h-127q-57 106 -92 459.5t-35 574.5z" />
<glyph unicode=")" horiz-adv-x="313" d="M31 -229q55 119 91 474t36 558q0 209 -36 563t-91 473h127q55 -104 89 -458.5t34 -577.5q0 -229 -34 -578.5t-95 -453.5h-121z" />
<glyph unicode="*" horiz-adv-x="376" d="M29 946l24 78l97 -31l-3 103h84l-2 -103l97 31l26 -78l-98 -31l57 -81l-65 -50l-58 82l-59 -84l-68 47l64 86z" />
<glyph unicode="+" horiz-adv-x="618" d="M35 729v115h211v219h116v-219h213v-115h-213v-223h-116v223h-211z" />
<glyph unicode="," horiz-adv-x="243" d="M39 -180l47 332h141l-102 -332h-86z" />
<glyph unicode="-" horiz-adv-x="374" d="M61 750v108h248v-108h-248z" />
<glyph unicode="." horiz-adv-x="264" d="M61 0v160h136v-160h-136z" />
<glyph unicode="/" horiz-adv-x="497" d="M6 0l387 1681h99l-390 -1681h-96z" />
<glyph unicode="0" d="M59 172v1303q0 193 195 192q197 0 197 -192v-1303q0 -195 -197 -195q-195 0 -195 195zM211 164q0 -59 43 -60q45 0 45 60v1327q0 55 -45 55q-43 0 -43 -55v-1327z" />
<glyph unicode="1" horiz-adv-x="337" d="M12 1434v110q102 0 138 133h122v-1677h-151v1434h-109z" />
<glyph unicode="2" horiz-adv-x="491" d="M49 0v10q0 68 66 363l125 569q66 344 65 469v84q0 55 -45 55q-43 0 -43 -55v-192h-151v178q0 195 200 194q121 0 156 -51t35 -242q-4 -133 -62 -419q-2 -10 -32.5 -137.5t-69.5 -308.5t-76 -396h221v-121h-389z" />
<glyph unicode="3" horiz-adv-x="505" d="M59 172v481h152v-487q0 -61 43 -62q41 0 41 62v479q0 55 -84 84v117q84 35 84 88v565q0 61 -41 62q-43 0 -43 -62v-569h-152v557q0 195 195 194q190 0 190 -194v-539q0 -143 -112 -157q66 -10 89 -39t23 -99v-481q0 -195 -190 -195q-195 0 -195 195z" />
<glyph unicode="4" horiz-adv-x="548" d="M47 250v1427h131v-1302h121v1302h145v-1302h64v-125h-64v-250h-151v250h-246z" />
<glyph unicode="5" horiz-adv-x="491" d="M59 172v606h148v-612q0 -61 43 -62q45 0 45 62v690q0 57 -37 57q-20 0 -41 -32h-151v800h387v-122h-238v-570q59 55 121 55q109 0 108 -167v-711q0 -188 -194 -189q-191 0 -191 195z" />
<glyph unicode="6" d="M59 172v1309q0 195 195 194q197 0 197 -194v-473h-154v487q0 61 -43 61q-45 0 -45 -61v-629q51 47 113 47q55 0 92 -42t37 -103v-596q0 -195 -197 -195q-195 0 -195 195zM209 162q0 -57 45 -58q43 0 43 58v565q0 57 -43 57q-45 0 -45 -57v-565z" />
<glyph unicode="7" horiz-adv-x="458" d="M27 1552v125h411v-127l-221 -1550h-162l234 1552h-262z" />
<glyph unicode="8" d="M59 172v469q0 123 113 160q-68 16 -90.5 51t-22.5 106v529q0 195 195 194q197 0 197 -194v-524q0 -131 -123 -162q123 -25 123 -156v-473q0 -195 -197 -195q-195 0 -195 195zM211 162q0 -57 43 -58q45 0 45 62v504q0 61 -45 61q-43 0 -43 -59v-510zM211 928q0 -59 43 -60 q45 0 45 60v575q0 57 -45 58q-43 0 -43 -58v-575z" />
<glyph unicode="9" d="M59 172v444h152v-450q0 -61 43 -62q45 0 45 62v569q-45 -45 -109 -45q-59 0 -95 41t-36 103v643q0 195 195 194q197 0 197 -194v-1305q0 -195 -197 -195q-195 0 -195 195zM211 881q0 -55 43 -56q45 0 45 58v602q0 57 -45 57q-43 0 -43 -57v-604z" />
<glyph unicode=":" horiz-adv-x="210" d="M61 246v162h136v-162h-136zM61 891v158h136v-158h-136z" />
<glyph unicode=";" horiz-adv-x="256" d="M39 66l47 335h143l-104 -335h-86zM80 891v158h135v-158h-135z" />
<glyph unicode="&#x3c;" horiz-adv-x="663" d="M29 727v109l596 247v-127l-428 -174l428 -176v-123z" />
<glyph unicode="=" horiz-adv-x="618" d="M35 612v115h540v-115h-540zM35 846v115h540v-115h-540z" />
<glyph unicode="&#x3e;" horiz-adv-x="663" d="M29 483v123l428 176l-428 174v127l596 -247v-109z" />
<glyph unicode="?" horiz-adv-x="393" d="M29 1137v407q0 158 168 158q123 0 155 -88q12 -33 13 -221q0 -61 -18.5 -273.5t-22.5 -222.5q-14 -37 -40 -142.5t-26 -142.5v-366h-133v385q0 113 57 266q45 115 45 483v179q0 47 -30.5 47t-30.5 -47v-422h-137zM125 0v164h133v-164h-133z" />
<glyph unicode="@" horiz-adv-x="956" d="M45 831q0 387 124 617.5t298 230.5q416 0 416 -798q0 -74 -7.5 -142.5t-26 -147.5t-60 -126t-103.5 -47q-96 0 -127 125q-51 -61 -106 -62q-68 0 -113 78t-45 217q0 145 41 222t115 77q59 0 96 -47l8 43h70v-377q0 -129 61 -129q39 0 69.5 81t30.5 216q0 651 -319 651 q-143 0 -234.5 -178t-91.5 -506q0 -637 289 -729l-8 -172q-186 47 -281.5 290.5t-95.5 612.5zM373 776q0 -152 86 -151q57 0 88 71v181q-31 57 -82 57q-92 0 -92 -158z" />
<glyph unicode="A" horiz-adv-x="503" d="M59 129v614q0 63 117 137t117 160v519q0 43 -49 43t-49 -43v-545h-136v530q0 158 185 158q195 0 194 -158v-1495q0 -35 2 -49h-141q0 6 -4 63q-37 -76 -105 -75q-55 0 -93 42t-38 99zM195 145q0 -45 49 -45t49 50v708q-66 -41 -82 -59.5t-16 -50.5v-603z" />
<glyph unicode="B" horiz-adv-x="514" d="M61 0v1677h179q213 0 213 -184v-510q0 -127 -150 -154v-6q150 -14 150 -141v-498q0 -184 -213 -184h-179zM211 125h33q55 0 55 65v510q0 66 -55 66h-33v-641zM211 889h33q55 0 55 65v541q0 68 -55 68h-33v-674z" />
<glyph unicode="C" horiz-adv-x="507" d="M59 172v1335q0 195 195 195q193 0 192 -195v-512h-149v525q0 59 -43 59t-43 -59v-1354q0 -61 43 -61.5t43 61.5v584h149v-578q0 -195 -192 -195q-195 0 -195 195z" />
<glyph unicode="D" horiz-adv-x="514" d="M61 0v1677h179q213 0 213 -184v-1309q0 -184 -213 -184h-179zM211 125h33q55 0 55 65v1305q0 68 -55 68h-33v-1438z" />
<glyph unicode="E" horiz-adv-x="518" d="M59 176v1327q0 199 199 199q90 0 144.5 -41t54.5 -109v-768h-246v-651q0 -41 49 -41q45 0 45 41v580h152v-580q0 -68 -54.5 -112t-142.5 -44q-201 0 -201 199zM211 889h94v661q0 43 -45 43q-49 0 -49 -43v-661z" />
<glyph unicode="F" horiz-adv-x="397" d="M61 0v1677h328v-137h-178v-618h178v-131h-178v-791h-150z" />
<glyph unicode="G" horiz-adv-x="516" d="M61 133v496h144v-500q0 -45 49 -45t49 45v641q-39 -70 -137 -70q-104 0 -105 150v696q0 143 103 144q109 0 135 -88l6 75h148v-1544q0 -78 -55.5 -117t-127.5 -39q-111 0 -160 38t-49 118zM205 872q0 -47 49 -47t49 47v644q0 45 -49 61q-49 0 -49 -47v-658z" />
<glyph unicode="H" d="M61 0v1677h150v-786h86v786h149v-1677h-149v750h-86v-750h-150z" />
<glyph unicode="I" horiz-adv-x="278" d="M61 0v1677h150v-1677h-150z" />
<glyph unicode="J" horiz-adv-x="274" d="M12 0v113q63 18 64 45v1519h133v-1544q0 -74 -24.5 -103.5t-96.5 -29.5h-76z" />
<glyph unicode="K" horiz-adv-x="505" d="M61 0v1677h154v-788l115 788h155l-139 -803l135 -874h-159l-107 834v-834h-154z" />
<glyph unicode="L" horiz-adv-x="401" d="M61 0v1677h150v-1540h182v-137h-332z" />
<glyph unicode="M" horiz-adv-x="729" d="M61 0v1677h140v-63q27 76 127 76q82 0 106 -74q29 74 125 74q106 0 107 -140v-1550h-144v1528q0 47 -49 47q-39 0 -39 -47v-1528h-143v1528q0 47 -49 47q-37 0 -37 -47v-1528h-144z" />
<glyph unicode="N" horiz-adv-x="499" d="M61 0v1677h138v-63q39 76 131 76q106 0 106 -140v-1550h-143v1528q0 47 -49 47q-39 0 -39 -47v-1528h-144z" />
<glyph unicode="O" d="M59 172v1335q0 195 195 195q197 0 197 -195v-1335q0 -195 -197 -195q-195 0 -195 195zM211 162q0 -57 43 -58q45 0 45 60v1362q0 55 -45 55q-43 0 -43 -55v-1364z" />
<glyph unicode="P" horiz-adv-x="473" d="M61 0v1677h179q213 0 213 -184v-588q0 -102 -53.5 -144t-188.5 -42v-719h-150zM211 840h33q55 0 55 65v588q0 68 -55 68h-33v-721z" />
<glyph unicode="Q" horiz-adv-x="505" d="M55 172v1335q0 195 195 195q197 0 196 -195v-1335q0 -129 -75 -174h86v-119h-86q-76 0 -76 101q-35 -2 -57 -3q-183 0 -183 195zM209 162q0 -57 41 -58q47 0 47 60v1360q0 55 -47 55q-41 0 -41 -55v-1362z" />
<glyph unicode="R" d="M61 0v1681h179q213 0 213 -184v-448q0 -143 -150 -175q150 -12 150 -143v-547q0 -131 24 -184h-158q-20 43 -20 188v562q0 63 -88 63v-813h-150zM211 938h33q55 0 55 68v493q0 66 -55 66h-33v-627z" />
<glyph unicode="S" horiz-adv-x="499" d="M53 172v352h152v-358q0 -61 43 -62q45 0 45 62q0 115 -4 143l-41 246l-146 580q-49 213 -49 237v135q0 195 194.5 195t194.5 -195v-329h-149v342q0 61 -45 61q-43 0 -43 -51v-109q0 -78 61 -342l105 -444q4 -12 23.5 -101.5t35.5 -154.5q12 -53 12 -74v-133 q0 -195 -194.5 -195t-194.5 195z" />
<glyph unicode="T" horiz-adv-x="454" d="M20 1546v131h414v-131h-131v-1546h-151v1546h-132z" />
<glyph unicode="U" horiz-adv-x="497" d="M55 172v1505h154v-1511q0 -61 41 -62q47 0 47 62v1511h149v-1505q0 -195 -196 -195q-195 0 -195 195z" />
<glyph unicode="V" horiz-adv-x="501" d="M23 1677h157l76 -1454l74 1454h151l-119 -1677h-217z" />
<glyph unicode="W" horiz-adv-x="858" d="M31 1677h157l52 -1454l98 1454h199l98 -1454l51 1454h150l-93 -1677h-219l-90 1341l-88 -1341h-217z" />
<glyph unicode="X" horiz-adv-x="530" d="M27 0l161 874l-155 803h182l57 -446l72 446h145l-153 -776l166 -901h-164l-90 586l-96 -586h-125z" />
<glyph unicode="Y" horiz-adv-x="522" d="M59 172v444h162v-450q0 -61 33 -62q45 0 45 62v569q-45 -45 -100 -45q-61 0 -100.5 41t-39.5 103v843h162v-792q0 -59 33 -60q45 0 45 60v792h160v-1505q0 -195 -205 -195q-195 0 -195 195z" />
<glyph unicode="Z" horiz-adv-x="393" d="M31 0q0 127 174 1546h-174v131h334q0 -113 -170 -1546h176v-131h-340z" />
<glyph unicode="[" horiz-adv-x="348" d="M84 -127v1935h248v-106h-117v-1725h117v-104h-248z" />
<glyph unicode="\" horiz-adv-x="385" d="M6 1673h98l271 -1669h-96z" />
<glyph unicode="]" horiz-adv-x="331" d="M16 -23h117v1725h-117v106h248v-1935h-248v104z" />
<glyph unicode="^" horiz-adv-x="518" d="M29 1286l188 387h82l190 -387h-79l-152 299l-154 -299h-75z" />
<glyph unicode="_" horiz-adv-x="827" d="M61 -322h703v-116h-703v116z" />
<glyph unicode="`" horiz-adv-x="409" d="M117 1999h127l49 -154h-80z" />
<glyph unicode="a" horiz-adv-x="503" d="M59 129v614q0 63 117 137t117 160v519q0 43 -49 43t-49 -43v-545h-136v530q0 158 185 158q195 0 194 -158v-1495q0 -35 2 -49h-141q0 6 -4 63q-37 -76 -105 -75q-55 0 -93 42t-38 99zM195 145q0 -45 49 -45t49 50v708q-66 -41 -82 -59.5t-16 -50.5v-603z" />
<glyph unicode="b" horiz-adv-x="514" d="M61 0v1677h179q213 0 213 -184v-510q0 -127 -150 -154v-6q150 -14 150 -141v-498q0 -184 -213 -184h-179zM211 125h33q55 0 55 65v510q0 66 -55 66h-33v-641zM211 889h33q55 0 55 65v541q0 68 -55 68h-33v-674z" />
<glyph unicode="c" horiz-adv-x="507" d="M59 172v1335q0 195 195 195q193 0 192 -195v-512h-149v525q0 59 -43 59t-43 -59v-1354q0 -61 43 -61.5t43 61.5v584h149v-578q0 -195 -192 -195q-195 0 -195 195z" />
<glyph unicode="d" horiz-adv-x="514" d="M61 0v1677h179q213 0 213 -184v-1309q0 -184 -213 -184h-179zM211 125h33q55 0 55 65v1305q0 68 -55 68h-33v-1438z" />
<glyph unicode="e" horiz-adv-x="518" d="M59 176v1327q0 199 199 199q90 0 144.5 -41t54.5 -109v-768h-246v-651q0 -41 49 -41q45 0 45 41v580h152v-580q0 -68 -54.5 -112t-142.5 -44q-201 0 -201 199zM211 889h94v661q0 43 -45 43q-49 0 -49 -43v-661z" />
<glyph unicode="f" horiz-adv-x="397" d="M61 0v1677h328v-137h-178v-618h178v-131h-178v-791h-150z" />
<glyph unicode="g" horiz-adv-x="516" d="M61 133v496h144v-500q0 -45 49 -45t49 45v641q-39 -70 -137 -70q-104 0 -105 150v696q0 143 103 144q109 0 135 -88l6 75h148v-1544q0 -78 -55.5 -117t-127.5 -39q-111 0 -160 38t-49 118zM205 872q0 -47 49 -47t49 47v644q0 45 -49 61q-49 0 -49 -47v-658z" />
<glyph unicode="h" d="M61 0v1677h150v-786h86v786h149v-1677h-149v750h-86v-750h-150z" />
<glyph unicode="i" horiz-adv-x="278" d="M61 0v1677h150v-1677h-150z" />
<glyph unicode="j" horiz-adv-x="274" d="M12 0v113q63 18 64 45v1519h133v-1544q0 -74 -24.5 -103.5t-96.5 -29.5h-76z" />
<glyph unicode="k" horiz-adv-x="505" d="M61 0v1677h154v-788l115 788h155l-139 -803l135 -874h-159l-107 834v-834h-154z" />
<glyph unicode="l" horiz-adv-x="401" d="M61 0v1677h150v-1540h182v-137h-332z" />
<glyph unicode="m" horiz-adv-x="729" d="M61 0v1677h140v-63q27 76 127 76q82 0 106 -74q29 74 125 74q106 0 107 -140v-1550h-144v1528q0 47 -49 47q-39 0 -39 -47v-1528h-143v1528q0 47 -49 47q-37 0 -37 -47v-1528h-144z" />
<glyph unicode="n" horiz-adv-x="499" d="M61 0v1677h138v-63q39 76 131 76q106 0 106 -140v-1550h-143v1528q0 47 -49 47q-39 0 -39 -47v-1528h-144z" />
<glyph unicode="o" d="M59 172v1335q0 195 195 195q197 0 197 -195v-1335q0 -195 -197 -195q-195 0 -195 195zM211 162q0 -57 43 -58q45 0 45 60v1362q0 55 -45 55q-43 0 -43 -55v-1364z" />
<glyph unicode="p" horiz-adv-x="473" d="M61 0v1677h179q213 0 213 -184v-588q0 -102 -53.5 -144t-188.5 -42v-719h-150zM211 840h33q55 0 55 65v588q0 68 -55 68h-33v-721z" />
<glyph unicode="q" horiz-adv-x="505" d="M55 172v1335q0 195 195 195q197 0 196 -195v-1335q0 -129 -75 -174h86v-119h-86q-76 0 -76 101q-35 -2 -57 -3q-183 0 -183 195zM209 162q0 -57 41 -58q47 0 47 60v1360q0 55 -47 55q-41 0 -41 -55v-1362z" />
<glyph unicode="r" d="M61 0v1681h179q213 0 213 -184v-448q0 -143 -150 -175q150 -12 150 -143v-547q0 -131 24 -184h-158q-20 43 -20 188v562q0 63 -88 63v-813h-150zM211 938h33q55 0 55 68v493q0 66 -55 66h-33v-627z" />
<glyph unicode="s" horiz-adv-x="499" d="M53 172v352h152v-358q0 -61 43 -62q45 0 45 62q0 115 -4 143l-41 246l-146 580q-49 213 -49 237v135q0 195 194.5 195t194.5 -195v-329h-149v342q0 61 -45 61q-43 0 -43 -51v-109q0 -78 61 -342l105 -444q4 -12 23.5 -101.5t35.5 -154.5q12 -53 12 -74v-133 q0 -195 -194.5 -195t-194.5 195z" />
<glyph unicode="t" horiz-adv-x="454" d="M20 1546v131h414v-131h-131v-1546h-151v1546h-132z" />
<glyph unicode="u" horiz-adv-x="497" d="M55 172v1505h154v-1511q0 -61 41 -62q47 0 47 62v1511h149v-1505q0 -195 -196 -195q-195 0 -195 195z" />
<glyph unicode="v" horiz-adv-x="501" d="M23 1677h157l76 -1454l74 1454h151l-119 -1677h-217z" />
<glyph unicode="w" horiz-adv-x="858" d="M31 1677h157l52 -1454l98 1454h199l98 -1454l51 1454h150l-93 -1677h-219l-90 1341l-88 -1341h-217z" />
<glyph unicode="x" horiz-adv-x="530" d="M27 0l161 874l-155 803h182l57 -446l72 446h145l-153 -776l166 -901h-164l-90 586l-96 -586h-125z" />
<glyph unicode="y" horiz-adv-x="522" d="M59 172v444h162v-450q0 -61 33 -62q45 0 45 62v569q-45 -45 -100 -45q-61 0 -100.5 41t-39.5 103v843h162v-792q0 -59 33 -60q45 0 45 60v792h160v-1505q0 -195 -205 -195q-195 0 -195 195z" />
<glyph unicode="z" horiz-adv-x="393" d="M31 0q0 127 174 1546h-174v131h334q0 -113 -170 -1546h176v-131h-340z" />
<glyph unicode="{" horiz-adv-x="583" d="M82 786v115q43 0 73.5 13.5t51 51.5t32 78.5t17.5 120.5t7 152t1 196q0 176 56.5 241t220.5 67v-119q-133 0 -133 -170q0 -635 -164 -688q164 -53 164 -699q0 -168 133 -168v-120q-164 4 -220.5 68.5t-56.5 238.5q0 127 -1 198.5t-7 153.5t-17.5 123t-32 80t-51 53 t-73.5 14z" />
<glyph unicode="|" horiz-adv-x="372" d="M121 -250v2112h123v-2112h-123z" />
<glyph unicode="}" horiz-adv-x="575" d="M35 -23q133 0 133 168q0 645 164 699q-164 53 -164 688q0 170 -133 170v119q164 -2 220 -66.5t56 -241.5q0 -123 2 -195.5t7.5 -152.5t17.5 -120.5t31.5 -77.5t50.5 -51.5t74 -14.5v-115q-43 0 -74 -14t-50.5 -52t-31.5 -81t-17.5 -123t-7.5 -153.5t-2 -198.5 q0 -176 -56 -239.5t-220 -67.5v120z" />
<glyph unicode="&#xa1;" horiz-adv-x="344" d="M98 0v1378h146v-1378h-146zM98 1507v164h146v-164h-146z" />
<glyph unicode="&#xa8;" horiz-adv-x="565" d="M117 1875.5q0 63.5 61 63.5q63 0 63.5 -63.5t-61.5 -63.5q-63 0 -63 63.5zM322 1875.5q0 63.5 63 63.5q61 0 61 -63.5t-61 -63.5q-63 0 -63 63.5z" />
<glyph unicode="&#xa9;" horiz-adv-x="1171" d="M43 836q0 207 28.5 361.5t76 248.5t119 151.5t147 79t172 21.5t172.5 -21.5t147.5 -79t118.5 -151.5t75.5 -249t28.5 -361q0 -256 -40.5 -431.5t-119.5 -265.5t-170 -126t-212 -36t-212 36t-170 126t-120 265.5t-41 431.5zM137 834q0 -225 35 -381t99.5 -237t140 -113.5 t174.5 -32.5q80 0 143.5 19.5t122.5 70.5t99 135t63.5 220t23.5 319q0 227 -34.5 382.5t-100 236.5t-141.5 113.5t-176 32.5q-98 0 -174 -32.5t-140.5 -113.5t-99.5 -236.5t-35 -382.5zM444 365v942q0 139 137.5 139t137.5 -139v-359h-105v371q0 39 -32 39q-31 0 -31 -39 v-957q0 -41 31 -40q33 0 32 40v414h105v-411q0 -135 -137.5 -135t-137.5 135z" />
<glyph unicode="&#xaa;" horiz-adv-x="503" d="M59 129v614q0 63 117 137t117 160v519q0 43 -49 43t-49 -43v-545h-136v530q0 158 185 158q195 0 194 -158v-1495q0 -35 2 -49h-141q0 6 -4 63q-37 -76 -105 -75q-55 0 -93 42t-38 99zM195 145q0 -45 49 -45t49 50v708q-66 -41 -82 -59.5t-16 -50.5v-603z" />
<glyph unicode="&#xab;" horiz-adv-x="800" d="M18 811v111l435 329v-125l-361 -262l361 -260v-129zM324 811v111l432 329v-125l-361 -262l361 -260v-129z" />
<glyph unicode="&#xad;" horiz-adv-x="374" d="M61 750v108h248v-108h-248z" />
<glyph unicode="&#xae;" horiz-adv-x="811" d="M55 1368q0 137 100.5 235.5t252.5 98.5q156 0 257 -96.5t101 -237.5q0 -135 -102.5 -233.5t-255.5 -98.5q-152 0 -252.5 97.5t-100.5 234.5zM121 1368q0 -106 81 -189t205.5 -83t214 78.5t89.5 193.5q0 102 -88 184t-215 82q-125 0 -206 -82t-81 -184zM297 1182v360h129 q51 0 82 -29.5t31 -85.5q0 -63 -58 -102l62 -143h-74l-61 133h-37v-133h-74zM371 1386h57q39 0 39 41t-39 41h-57v-82z" />
<glyph unicode="&#xb0;" horiz-adv-x="786" d="M43 1233q0 147 101.5 249.5t248.5 102.5q145 0 248.5 -103.5t103.5 -248.5q0 -143 -103 -247.5t-249 -104.5q-147 0 -248.5 103.5t-101.5 248.5zM137 1235q0 -109 75 -182.5t181.5 -73.5t181 75.5t74.5 180t-75.5 180.5t-180 76t-180.5 -75t-76 -181z" />
<glyph unicode="&#xb2;" horiz-adv-x="491" d="M49 0v10q0 68 66 363l125 569q66 344 65 469v84q0 55 -45 55q-43 0 -43 -55v-192h-151v178q0 195 200 194q121 0 156 -51t35 -242q-4 -133 -62 -419q-2 -10 -32.5 -137.5t-69.5 -308.5t-76 -396h221v-121h-389z" />
<glyph unicode="&#xb3;" horiz-adv-x="505" d="M59 172v481h152v-487q0 -61 43 -62q41 0 41 62v479q0 55 -84 84v117q84 35 84 88v565q0 61 -41 62q-43 0 -43 -62v-569h-152v557q0 195 195 194q190 0 190 -194v-539q0 -143 -112 -157q66 -10 89 -39t23 -99v-481q0 -195 -190 -195q-195 0 -195 195z" />
<glyph unicode="&#xb4;" horiz-adv-x="409" d="M117 1845l49 154h127l-94 -154h-82z" />
<glyph unicode="&#xb8;" horiz-adv-x="270" d="M18 -238q16 -2 33 -2q31 0 55.5 22.5t24.5 53.5q0 51 -55 51q-8 0 -15 -2l74 121h39l-33 -53q84 -23 84 -100q0 -53 -43 -88t-100 -35q-27 0 -64 6v26z" />
<glyph unicode="&#xb9;" horiz-adv-x="337" d="M12 1434v110q102 0 138 133h122v-1677h-151v1434h-109z" />
<glyph unicode="&#xba;" d="M59 172v1335q0 195 195 195q197 0 197 -195v-1335q0 -195 -197 -195q-195 0 -195 195zM211 162q0 -57 43 -58q45 0 45 60v1362q0 55 -45 55q-43 0 -43 -55v-1364z" />
<glyph unicode="&#xbb;" horiz-adv-x="817" d="M61 477v125l361 262l-361 260v129l433 -335v-109zM365 477v125l362 262l-362 260v129l434 -335v-109z" />
<glyph unicode="&#xbf;" horiz-adv-x="393" d="M29 287q0 59 18.5 272t22.5 221q14 37 39.5 142.5t25.5 142.5v367h135v-385q0 -106 -59 -267q-45 -115 -45 -483v-178q0 -47 30.5 -47t30.5 47v422h138v-408q0 -156 -168 -156q-125 0 -154 86q-14 31 -14 224zM135 1513v164h135v-164h-135z" />
<glyph unicode="&#xc0;" horiz-adv-x="503" d="M59 129v614q0 63 117 137t117 160v519q0 43 -49 43t-49 -43v-545h-136v530q0 158 185 158q195 0 194 -158v-1495q0 -35 2 -49h-141q0 6 -4 63q-37 -76 -105 -75q-55 0 -93 42t-38 99zM117 1999h127l49 -154h-80zM195 145q0 -45 49 -45t49 50v708q-66 -41 -82 -59.5 t-16 -50.5v-603z" />
<glyph unicode="&#xc1;" horiz-adv-x="503" d="M59 129v614q0 63 117 137t117 160v519q0 43 -49 43t-49 -43v-545h-136v530q0 158 185 158q195 0 194 -158v-1495q0 -35 2 -49h-141q0 6 -4 63q-37 -76 -105 -75q-55 0 -93 42t-38 99zM195 145q0 -45 49 -45t49 50v708q-66 -41 -82 -59.5t-16 -50.5v-603zM211 1845l49 154 h127l-94 -154h-82z" />
<glyph unicode="&#xc2;" horiz-adv-x="503" d="M59 129v614q0 63 117 137t117 160v519q0 43 -49 43t-49 -43v-545h-136v530q0 158 185 158q195 0 194 -158v-1495q0 -35 2 -49h-141q0 6 -4 63q-37 -76 -105 -75q-55 0 -93 42t-38 99zM80 1862l117 129h112l115 -129h-80l-92 73l-92 -73h-80zM195 145q0 -45 49 -45t49 50 v708q-66 -41 -82 -59.5t-16 -50.5v-603z" />
<glyph unicode="&#xc3;" horiz-adv-x="503" d="M55 1819q2 129 117 129q31 0 110.5 -35t90.5 -35q43 0 57 70h19q0 -61 -32 -96t-83 -35q-29 0 -112 34.5t-89 34.5q-39 0 -57 -67h-21zM59 129v614q0 63 117 137t117 160v519q0 43 -49 43t-49 -43v-545h-136v530q0 158 185 158q195 0 194 -158v-1495q0 -35 2 -49h-141 q0 6 -4 63q-37 -76 -105 -75q-55 0 -93 42t-38 99zM195 145q0 -45 49 -45t49 50v708q-66 -41 -82 -59.5t-16 -50.5v-603z" />
<glyph unicode="&#xc4;" horiz-adv-x="503" d="M59 129v614q0 63 117 137t117 160v519q0 43 -49 43t-49 -43v-545h-136v530q0 158 185 158q195 0 194 -158v-1495q0 -35 2 -49h-141q0 6 -4 63q-37 -76 -105 -75q-55 0 -93 42t-38 99zM86 1875.5q0 63.5 61 63.5q63 0 63.5 -63.5t-60.5 -63.5q-64 0 -64 63.5zM195 145 q0 -45 49 -45t49 50v708q-66 -41 -82 -59.5t-16 -50.5v-603zM291 1875.5q0 63.5 63 63.5q61 0 61.5 -63.5t-61.5 -63.5q-63 0 -63 63.5z" />
<glyph unicode="&#xc5;" horiz-adv-x="503" d="M59 129v614q0 63 117 137t117 160v519q0 43 -49 43t-49 -43v-545h-136v530q0 158 185 158q195 0 194 -158v-1495q0 -35 2 -49h-141q0 6 -4 63q-37 -76 -105 -75q-55 0 -93 42t-38 99zM133 1907q0 49 34 80.5t83 31.5t84 -31.5t35 -80.5t-35 -82t-84 -33q-45 0 -81 34 t-36 81zM176 1907q0 -72 74 -72t74 72q0 74 -74 74t-74 -74zM195 145q0 -45 49 -45t49 50v708q-66 -41 -82 -59.5t-16 -50.5v-603z" />
<glyph unicode="&#xc6;" horiz-adv-x="735" d="M61 117v626q0 35 50.5 84.5t105.5 92.5t62 55v559q0 47 -35 47q-49 0 -49 -47v-520h-134v506q0 158 183 157h233q197 0 197 -137v-756h-240v-651q0 -41 43 -41q45 0 45 41v580h152v-580q0 -74 -52.5 -115t-121.5 -41q-102 0 -142 101q-20 -53 -56 -77t-112 -24 q-55 0 -92 41.5t-37 98.5zM195 133q0 -45 49 -45q35 0 35 45v715q-84 -49 -84 -100v-615zM434 889h88v647q0 43 -45 43q-43 0 -43 -43v-647z" />
<glyph unicode="&#xc7;" horiz-adv-x="507" d="M59 172v1335q0 195 195 195q193 0 192 -195v-512h-149v525q0 59 -43 59t-43 -59v-1354q0 -61 43 -61.5t43 61.5v584h149v-578q0 -184 -172 -195l-14 -24q84 -23 84 -100q0 -53 -43 -88t-100 -35q-8 0 -29.5 3t-34.5 3v26q16 -2 35 -2q31 0 54.5 22.5t23.5 53.5 q0 51 -55 51q-8 0 -15 -2l58 92q-179 11 -179 195z" />
<glyph unicode="&#xc8;" horiz-adv-x="518" d="M59 176v1327q0 199 199 199q90 0 144.5 -41t54.5 -109v-768h-246v-651q0 -41 49 -41q45 0 45 41v580h152v-580q0 -68 -54.5 -112t-142.5 -44q-201 0 -201 199zM123 1999h127l49 -154h-80zM211 889h94v661q0 43 -45 43q-49 0 -49 -43v-661z" />
<glyph unicode="&#xc9;" horiz-adv-x="518" d="M59 176v1327q0 199 199 199q90 0 144.5 -41t54.5 -109v-768h-246v-651q0 -41 49 -41q45 0 45 41v580h152v-580q0 -68 -54.5 -112t-142.5 -44q-201 0 -201 199zM211 889h94v661q0 43 -45 43q-49 0 -49 -43v-661zM217 1845l49 154h127l-88 -154h-88z" />
<glyph unicode="&#xca;" horiz-adv-x="518" d="M59 176v1327q0 199 199 199q90 0 144.5 -41t54.5 -109v-768h-246v-651q0 -41 49 -41q45 0 45 41v580h152v-580q0 -68 -54.5 -112t-142.5 -44q-201 0 -201 199zM86 1862l117 129h112l115 -129h-80l-92 73l-92 -73h-80zM211 889h94v661q0 43 -45 43q-49 0 -49 -43v-661z " />
<glyph unicode="&#xcb;" horiz-adv-x="518" d="M59 176v1327q0 199 199 199q90 0 144.5 -41t54.5 -109v-768h-246v-651q0 -41 49 -41q45 0 45 41v580h152v-580q0 -68 -54.5 -112t-142.5 -44q-201 0 -201 199zM94 1875.5q0 63.5 62 63.5q63 0 63 -63.5t-61 -63.5q-64 0 -64 63.5zM211 889h94v661q0 43 -45 43 q-49 0 -49 -43v-661zM299 1875.5q0 63.5 63 63.5q61 0 61.5 -63.5t-61.5 -63.5q-63 0 -63 63.5z" />
<glyph unicode="&#xcc;" horiz-adv-x="278" d="M4 1999h127l49 -154h-80zM61 0v1677h150v-1677h-150z" />
<glyph unicode="&#xcd;" horiz-adv-x="278" d="M61 0v1677h150v-1677h-150zM98 1845l49 154h127l-63 -154h-113z" />
<glyph unicode="&#xce;" horiz-adv-x="278" d="M-33 1862l117 129h113l114 -129h-80l-92 73l-92 -73h-80zM61 0v1677h150v-1677h-150z" />
<glyph unicode="&#xcf;" horiz-adv-x="278" d="M-27 1875.5q0 63.5 62 63.5q63 0 63 -63.5t-61 -63.5q-64 0 -64 63.5zM61 0v1677h150v-1677h-150zM178 1875.5q0 63.5 64 63.5q61 0 61 -63.5t-61 -63.5q-64 0 -64 63.5z" />
<glyph unicode="&#xd0;" horiz-adv-x="499" d="M0 784v99h47v794h180q211 0 211 -184v-1309q0 -184 -211 -184h-180v784h-47zM197 125h32q59 0 60 65v1305q0 68 -60 68h-32v-680h45v-99h-45v-659z" />
<glyph unicode="&#xd1;" horiz-adv-x="499" d="M53 1819q4 129 117 129q31 0 110.5 -35t90.5 -35q43 0 57 70h18q0 -61 -31.5 -96t-82.5 -35q-29 0 -112 34.5t-89 34.5q-39 0 -57 -67h-21zM61 0v1677h138v-63q39 76 131 76q106 0 106 -140v-1550h-143v1528q0 47 -49 47q-39 0 -39 -47v-1528h-144z" />
<glyph unicode="&#xd2;" d="M59 172v1335q0 195 195 195q197 0 197 -195v-1335q0 -195 -197 -195q-195 0 -195 195zM119 1999h127l49 -154h-80zM211 162q0 -57 43 -58q45 0 45 60v1362q0 55 -45 55q-43 0 -43 -55v-1364z" />
<glyph unicode="&#xd3;" d="M59 172v1335q0 195 195 195q197 0 197 -195v-1335q0 -195 -197 -195q-195 0 -195 195zM211 162q0 -57 43 -58q45 0 45 60v1362q0 55 -45 55q-43 0 -43 -55v-1364zM213 1845l49 154h127l-94 -154h-82z" />
<glyph unicode="&#xd4;" d="M59 172v1335q0 195 195 195q197 0 197 -195v-1335q0 -195 -197 -195q-195 0 -195 195zM84 1862l117 129h112l115 -129h-80l-92 73l-92 -73h-80zM211 162q0 -57 43 -58q45 0 45 60v1362q0 55 -45 55q-43 0 -43 -55v-1364z" />
<glyph unicode="&#xd5;" d="M57 1819q4 129 117 129q31 0 111 -35t90 -35q43 0 57 70h19q0 -61 -32 -96t-83 -35q-29 0 -112 34.5t-89 34.5q-39 0 -57 -67h-21zM59 172v1335q0 195 195 195q197 0 197 -195v-1335q0 -195 -197 -195q-195 0 -195 195zM211 162q0 -57 43 -58q45 0 45 60v1362 q0 55 -45 55q-43 0 -43 -55v-1364z" />
<glyph unicode="&#xd6;" d="M59 172v1335q0 195 195 195q197 0 197 -195v-1335q0 -195 -197 -195q-195 0 -195 195zM90 1875.5q0 63.5 62 63.5q63 0 63 -63.5t-61 -63.5q-64 0 -64 63.5zM211 162q0 -57 43 -58q45 0 45 60v1362q0 55 -45 55q-43 0 -43 -55v-1364zM295 1875.5q0 63.5 63 63.5 q61 0 61.5 -63.5t-61.5 -63.5q-63 0 -63 63.5z" />
<glyph unicode="&#xd7;" horiz-adv-x="618" d="M66 631l157 155l-147 148l80 82l149 -150l154 158l84 -84l-156 -156l152 -149l-82 -82l-150 149l-157 -155z" />
<glyph unicode="&#xd8;" horiz-adv-x="530" d="M4 0l64 227v1280q0 195 194 195q143 0 182 -107l27 93l43 -15l-55 -194v-1307q0 -195 -197 -195q-160 0 -186 125l-33 -116zM221 162q0 -57 41 -58q47 0 47 60v778l-88 -319v-461zM221 778l88 324v424q0 55 -47 55q-41 0 -41 -55v-748z" />
<glyph unicode="&#xd9;" horiz-adv-x="497" d="M55 172v1505h154v-1511q0 -61 41 -62q47 0 47 62v1511h149v-1505q0 -195 -196 -195q-195 0 -195 195zM115 1999h127l49 -154h-80z" />
<glyph unicode="&#xda;" horiz-adv-x="497" d="M55 172v1505h154v-1511q0 -61 41 -62q47 0 47 62v1511h149v-1505q0 -195 -196 -195q-195 0 -195 195zM205 1845l49 154h127l-94 -154h-82z" />
<glyph unicode="&#xdb;" horiz-adv-x="497" d="M55 172v1505h154v-1511q0 -61 41 -62q47 0 47 62v1511h149v-1505q0 -195 -196 -195q-195 0 -195 195zM78 1862l117 129h112l115 -129h-80l-92 73l-92 -73h-80z" />
<glyph unicode="&#xdc;" horiz-adv-x="497" d="M55 172v1505h154v-1511q0 -61 41 -62q47 0 47 62v1511h149v-1505q0 -195 -196 -195q-195 0 -195 195zM84 1875.5q0 63.5 61 63.5q63 0 63.5 -63.5t-61.5 -63.5q-63 0 -63 63.5zM289 1875.5q0 63.5 63 63.5q61 0 61.5 -63.5t-61.5 -63.5q-63 0 -63 63.5z" />
<glyph unicode="&#xdd;" horiz-adv-x="522" d="M59 172v444h162v-450q0 -61 33 -62q45 0 45 62v569q-45 -45 -100 -45q-61 0 -100.5 41t-39.5 103v843h162v-792q0 -59 33 -60q45 0 45 60v792h160v-1505q0 -195 -205 -195q-195 0 -195 195zM219 1845l49 154h127l-94 -154h-82z" />
<glyph unicode="&#xde;" horiz-adv-x="468" d="M61 0v1677h150v-403h31q213 0 213 -184v-588q0 -104 -53.5 -145.5t-188.5 -41.5v-315h-152zM213 436h33q57 0 57 66v588q0 68 -57 67h-33v-721z" />
<glyph unicode="&#xdf;" horiz-adv-x="997" d="M53 172v352h152v-358q0 -61 43 -62q45 0 45 62q0 115 -4 143l-41 246l-146 580q-49 213 -49 237v135q0 195 194.5 195t194.5 -195v-329h-149v342q0 61 -45 61q-43 0 -43 -51v-109q0 -78 61 -342l105 -444q4 -12 23.5 -101.5t35.5 -154.5q12 -53 12 -74v-133 q0 -195 -194.5 -195t-194.5 195zM553 172v352h152v-358q0 -61 43 -62q45 0 45 62q0 115 -5 143l-40 246l-146 580q-49 213 -49 237v135q0 195 194.5 195t194.5 -195v-329h-149v342q0 61 -45 61q-43 0 -43 -51v-109q0 -78 61 -342l104 -444q4 -12 23.5 -101.5t36.5 -154.5 q12 -53 12 -74v-133q0 -195 -194.5 -195t-194.5 195z" />
<glyph unicode="&#xe0;" horiz-adv-x="503" d="M59 129v614q0 63 117 137t117 160v519q0 43 -49 43t-49 -43v-545h-136v530q0 158 185 158q195 0 194 -158v-1495q0 -35 2 -49h-141q0 6 -4 63q-37 -76 -105 -75q-55 0 -93 42t-38 99zM117 1999h127l49 -154h-80zM195 145q0 -45 49 -45t49 50v708q-66 -41 -82 -59.5 t-16 -50.5v-603z" />
<glyph unicode="&#xe1;" horiz-adv-x="503" d="M59 129v614q0 63 117 137t117 160v519q0 43 -49 43t-49 -43v-545h-136v530q0 158 185 158q195 0 194 -158v-1495q0 -35 2 -49h-141q0 6 -4 63q-37 -76 -105 -75q-55 0 -93 42t-38 99zM195 145q0 -45 49 -45t49 50v708q-66 -41 -82 -59.5t-16 -50.5v-603zM211 1845l49 154 h127l-94 -154h-82z" />
<glyph unicode="&#xe2;" horiz-adv-x="503" d="M59 129v614q0 63 117 137t117 160v519q0 43 -49 43t-49 -43v-545h-136v530q0 158 185 158q195 0 194 -158v-1495q0 -35 2 -49h-141q0 6 -4 63q-37 -76 -105 -75q-55 0 -93 42t-38 99zM80 1862l117 129h112l115 -129h-80l-92 73l-92 -73h-80zM195 145q0 -45 49 -45t49 50 v708q-66 -41 -82 -59.5t-16 -50.5v-603z" />
<glyph unicode="&#xe3;" horiz-adv-x="503" d="M55 1819q2 129 117 129q31 0 110.5 -35t90.5 -35q43 0 57 70h19q0 -61 -32 -96t-83 -35q-29 0 -112 34.5t-89 34.5q-39 0 -57 -67h-21zM59 129v614q0 63 117 137t117 160v519q0 43 -49 43t-49 -43v-545h-136v530q0 158 185 158q195 0 194 -158v-1495q0 -35 2 -49h-141 q0 6 -4 63q-37 -76 -105 -75q-55 0 -93 42t-38 99zM195 145q0 -45 49 -45t49 50v708q-66 -41 -82 -59.5t-16 -50.5v-603z" />
<glyph unicode="&#xe4;" horiz-adv-x="503" d="M59 129v614q0 63 117 137t117 160v519q0 43 -49 43t-49 -43v-545h-136v530q0 158 185 158q195 0 194 -158v-1495q0 -35 2 -49h-141q0 6 -4 63q-37 -76 -105 -75q-55 0 -93 42t-38 99zM86 1875.5q0 63.5 61 63.5q63 0 63.5 -63.5t-60.5 -63.5q-64 0 -64 63.5zM195 145 q0 -45 49 -45t49 50v708q-66 -41 -82 -59.5t-16 -50.5v-603zM291 1875.5q0 63.5 63 63.5q61 0 61.5 -63.5t-61.5 -63.5q-63 0 -63 63.5z" />
<glyph unicode="&#xe5;" horiz-adv-x="503" d="M59 129v614q0 63 117 137t117 160v519q0 43 -49 43t-49 -43v-545h-136v530q0 158 185 158q195 0 194 -158v-1495q0 -35 2 -49h-141q0 6 -4 63q-37 -76 -105 -75q-55 0 -93 42t-38 99zM133 1907q0 49 34 80.5t83 31.5t84 -31.5t35 -80.5t-35 -82t-84 -33q-45 0 -81 34 t-36 81zM176 1907q0 -72 74 -72t74 72q0 74 -74 74t-74 -74zM195 145q0 -45 49 -45t49 50v708q-66 -41 -82 -59.5t-16 -50.5v-603z" />
<glyph unicode="&#xe6;" horiz-adv-x="735" d="M61 117v626q0 35 50.5 84.5t105.5 92.5t62 55v559q0 47 -35 47q-49 0 -49 -47v-520h-134v506q0 158 183 157h233q197 0 197 -137v-756h-240v-651q0 -41 43 -41q45 0 45 41v580h152v-580q0 -74 -52.5 -115t-121.5 -41q-102 0 -142 101q-20 -53 -56 -77t-112 -24 q-55 0 -92 41.5t-37 98.5zM195 133q0 -45 49 -45q35 0 35 45v715q-84 -49 -84 -100v-615zM434 889h88v647q0 43 -45 43q-43 0 -43 -43v-647z" />
<glyph unicode="&#xe7;" horiz-adv-x="507" d="M59 172v1335q0 195 195 195q193 0 192 -195v-512h-149v525q0 59 -43 59t-43 -59v-1354q0 -61 43 -61.5t43 61.5v584h149v-578q0 -184 -172 -195l-14 -24q84 -23 84 -100q0 -53 -43 -88t-100 -35q-8 0 -29.5 3t-34.5 3v26q16 -2 35 -2q31 0 54.5 22.5t23.5 53.5 q0 51 -55 51q-8 0 -15 -2l58 92q-179 11 -179 195z" />
<glyph unicode="&#xe8;" horiz-adv-x="518" d="M59 176v1327q0 199 199 199q90 0 144.5 -41t54.5 -109v-768h-246v-651q0 -41 49 -41q45 0 45 41v580h152v-580q0 -68 -54.5 -112t-142.5 -44q-201 0 -201 199zM123 1999h127l49 -154h-80zM211 889h94v661q0 43 -45 43q-49 0 -49 -43v-661z" />
<glyph unicode="&#xe9;" horiz-adv-x="518" d="M59 176v1327q0 199 199 199q90 0 144.5 -41t54.5 -109v-768h-246v-651q0 -41 49 -41q45 0 45 41v580h152v-580q0 -68 -54.5 -112t-142.5 -44q-201 0 -201 199zM211 889h94v661q0 43 -45 43q-49 0 -49 -43v-661zM217 1845l49 154h127l-88 -154h-88z" />
<glyph unicode="&#xea;" horiz-adv-x="518" d="M59 176v1327q0 199 199 199q90 0 144.5 -41t54.5 -109v-768h-246v-651q0 -41 49 -41q45 0 45 41v580h152v-580q0 -68 -54.5 -112t-142.5 -44q-201 0 -201 199zM86 1862l117 129h112l115 -129h-80l-92 73l-92 -73h-80zM211 889h94v661q0 43 -45 43q-49 0 -49 -43v-661z " />
<glyph unicode="&#xeb;" horiz-adv-x="518" d="M59 176v1327q0 199 199 199q90 0 144.5 -41t54.5 -109v-768h-246v-651q0 -41 49 -41q45 0 45 41v580h152v-580q0 -68 -54.5 -112t-142.5 -44q-201 0 -201 199zM94 1875.5q0 63.5 62 63.5q63 0 63 -63.5t-61 -63.5q-64 0 -64 63.5zM211 889h94v661q0 43 -45 43 q-49 0 -49 -43v-661zM299 1875.5q0 63.5 63 63.5q61 0 61.5 -63.5t-61.5 -63.5q-63 0 -63 63.5z" />
<glyph unicode="&#xec;" horiz-adv-x="278" d="M4 1999h127l49 -154h-80zM61 0v1677h150v-1677h-150z" />
<glyph unicode="&#xed;" horiz-adv-x="278" d="M61 0v1677h150v-1677h-150zM98 1845l49 154h127l-63 -154h-113z" />
<glyph unicode="&#xee;" horiz-adv-x="278" d="M-33 1862l117 129h113l114 -129h-80l-92 73l-92 -73h-80zM61 0v1677h150v-1677h-150z" />
<glyph unicode="&#xef;" horiz-adv-x="278" d="M-27 1875.5q0 63.5 62 63.5q63 0 63 -63.5t-61 -63.5q-64 0 -64 63.5zM61 0v1677h150v-1677h-150zM178 1875.5q0 63.5 64 63.5q61 0 61 -63.5t-61 -63.5q-64 0 -64 63.5z" />
<glyph unicode="&#xf0;" horiz-adv-x="499" d="M0 784v99h47v794h180q211 0 211 -184v-1309q0 -184 -211 -184h-180v784h-47zM197 125h32q59 0 60 65v1305q0 68 -60 68h-32v-680h45v-99h-45v-659z" />
<glyph unicode="&#xf1;" horiz-adv-x="499" d="M53 1819q4 129 117 129q31 0 110.5 -35t90.5 -35q43 0 57 70h18q0 -61 -31.5 -96t-82.5 -35q-29 0 -112 34.5t-89 34.5q-39 0 -57 -67h-21zM61 0v1677h138v-63q39 76 131 76q106 0 106 -140v-1550h-143v1528q0 47 -49 47q-39 0 -39 -47v-1528h-144z" />
<glyph unicode="&#xf2;" d="M59 172v1335q0 195 195 195q197 0 197 -195v-1335q0 -195 -197 -195q-195 0 -195 195zM119 1999h127l49 -154h-80zM211 162q0 -57 43 -58q45 0 45 60v1362q0 55 -45 55q-43 0 -43 -55v-1364z" />
<glyph unicode="&#xf3;" d="M59 172v1335q0 195 195 195q197 0 197 -195v-1335q0 -195 -197 -195q-195 0 -195 195zM211 162q0 -57 43 -58q45 0 45 60v1362q0 55 -45 55q-43 0 -43 -55v-1364zM213 1845l49 154h127l-94 -154h-82z" />
<glyph unicode="&#xf4;" d="M59 172v1335q0 195 195 195q197 0 197 -195v-1335q0 -195 -197 -195q-195 0 -195 195zM84 1862l117 129h112l115 -129h-80l-92 73l-92 -73h-80zM211 162q0 -57 43 -58q45 0 45 60v1362q0 55 -45 55q-43 0 -43 -55v-1364z" />
<glyph unicode="&#xf5;" d="M57 1819q4 129 117 129q31 0 111 -35t90 -35q43 0 57 70h19q0 -61 -32 -96t-83 -35q-29 0 -112 34.5t-89 34.5q-39 0 -57 -67h-21zM59 172v1335q0 195 195 195q197 0 197 -195v-1335q0 -195 -197 -195q-195 0 -195 195zM211 162q0 -57 43 -58q45 0 45 60v1362 q0 55 -45 55q-43 0 -43 -55v-1364z" />
<glyph unicode="&#xf6;" d="M59 172v1335q0 195 195 195q197 0 197 -195v-1335q0 -195 -197 -195q-195 0 -195 195zM90 1875.5q0 63.5 62 63.5q63 0 63 -63.5t-61 -63.5q-64 0 -64 63.5zM211 162q0 -57 43 -58q45 0 45 60v1362q0 55 -45 55q-43 0 -43 -55v-1364zM295 1875.5q0 63.5 63 63.5 q61 0 61.5 -63.5t-61.5 -63.5q-63 0 -63 63.5z" />
<glyph unicode="&#xf8;" horiz-adv-x="530" d="M4 0l64 227v1280q0 195 194 195q143 0 182 -107l27 93l43 -15l-55 -194v-1307q0 -195 -197 -195q-160 0 -186 125l-33 -116zM221 162q0 -57 41 -58q47 0 47 60v778l-88 -319v-461zM221 778l88 324v424q0 55 -47 55q-41 0 -41 -55v-748z" />
<glyph unicode="&#xf9;" horiz-adv-x="497" d="M55 172v1505h154v-1511q0 -61 41 -62q47 0 47 62v1511h149v-1505q0 -195 -196 -195q-195 0 -195 195zM115 1999h127l49 -154h-80z" />
<glyph unicode="&#xfa;" horiz-adv-x="497" d="M55 172v1505h154v-1511q0 -61 41 -62q47 0 47 62v1511h149v-1505q0 -195 -196 -195q-195 0 -195 195zM205 1845l49 154h127l-94 -154h-82z" />
<glyph unicode="&#xfb;" horiz-adv-x="497" d="M55 172v1505h154v-1511q0 -61 41 -62q47 0 47 62v1511h149v-1505q0 -195 -196 -195q-195 0 -195 195zM78 1862l117 129h112l115 -129h-80l-92 73l-92 -73h-80z" />
<glyph unicode="&#xfc;" horiz-adv-x="497" d="M55 172v1505h154v-1511q0 -61 41 -62q47 0 47 62v1511h149v-1505q0 -195 -196 -195q-195 0 -195 195zM84 1875.5q0 63.5 61 63.5q63 0 63.5 -63.5t-61.5 -63.5q-63 0 -63 63.5zM289 1875.5q0 63.5 63 63.5q61 0 61.5 -63.5t-61.5 -63.5q-63 0 -63 63.5z" />
<glyph unicode="&#xfd;" horiz-adv-x="522" d="M59 172v444h162v-450q0 -61 33 -62q45 0 45 62v569q-45 -45 -100 -45q-61 0 -100.5 41t-39.5 103v843h162v-792q0 -59 33 -60q45 0 45 60v792h160v-1505q0 -195 -205 -195q-195 0 -195 195zM219 1845l49 154h127l-94 -154h-82z" />
<glyph unicode="&#xfe;" horiz-adv-x="468" d="M61 0v1677h150v-403h31q213 0 213 -184v-588q0 -104 -53.5 -145.5t-188.5 -41.5v-315h-152zM213 436h33q57 0 57 66v588q0 68 -57 67h-33v-721z" />
<glyph unicode="&#xff;" horiz-adv-x="522" d="M59 172v444h162v-450q0 -61 33 -62q45 0 45 62v569q-45 -45 -100 -45q-61 0 -100.5 41t-39.5 103v843h162v-792q0 -59 33 -60q45 0 45 60v792h160v-1505q0 -195 -205 -195q-195 0 -195 195zM96 1875.5q0 63.5 62 63.5q63 0 63 -63.5t-61 -63.5q-64 0 -64 63.5z M301 1875.5q0 63.5 64 63.5q61 0 61 -63.5t-61 -63.5q-64 0 -64 63.5z" />
<glyph unicode="&#x152;" horiz-adv-x="759" d="M61 172v1335q0 195 195 195q74 0 121 -29q47 29 123 29q90 0 144 -40t54 -110v-768h-245v-651q0 -41 49 -41q45 0 45 41v580h151v-580q0 -68 -54 -112t-142 -44q-78 0 -125 27q-45 -27 -121 -27q-195 0 -195 195zM213 162q0 -57 43 -58q39 0 43 41v1358q0 29 4 33 q-8 45 -47 45q-43 0 -43 -55v-1364zM453 889h94v661q0 43 -45 43q-49 0 -49 -43v-661z" />
<glyph unicode="&#x153;" horiz-adv-x="759" d="M61 172v1335q0 195 195 195q74 0 121 -29q47 29 123 29q90 0 144 -40t54 -110v-768h-245v-651q0 -41 49 -41q45 0 45 41v580h151v-580q0 -68 -54 -112t-142 -44q-78 0 -125 27q-45 -27 -121 -27q-195 0 -195 195zM213 162q0 -57 43 -58q39 0 43 41v1358q0 29 4 33 q-8 45 -47 45q-43 0 -43 -55v-1364zM453 889h94v661q0 43 -45 43q-49 0 -49 -43v-661z" />
<glyph unicode="&#x178;" horiz-adv-x="522" d="M59 172v444h162v-450q0 -61 33 -62q45 0 45 62v569q-45 -45 -100 -45q-61 0 -100.5 41t-39.5 103v843h162v-792q0 -59 33 -60q45 0 45 60v792h160v-1505q0 -195 -205 -195q-195 0 -195 195zM96 1875.5q0 63.5 62 63.5q63 0 63 -63.5t-61 -63.5q-64 0 -64 63.5z M301 1875.5q0 63.5 64 63.5q61 0 61 -63.5t-61 -63.5q-64 0 -64 63.5z" />
<glyph unicode="&#x2c6;" horiz-adv-x="579" d="M117 1862l116 129h113l115 -129h-80l-92 73l-92 -73h-80z" />
<glyph unicode="&#x2dc;" horiz-adv-x="628" d="M117 1819q2 129 116 129q31 0 111 -35t90 -35q43 0 58 70h18q0 -61 -32 -96t-83 -35q-29 0 -111.5 34.5t-88.5 34.5q-39 0 -58 -67h-20z" />
<glyph unicode="&#x2000;" horiz-adv-x="1009" />
<glyph unicode="&#x2001;" horiz-adv-x="2019" />
<glyph unicode="&#x2002;" horiz-adv-x="1009" />
<glyph unicode="&#x2003;" horiz-adv-x="2019" />
<glyph unicode="&#x2004;" horiz-adv-x="671" />
<glyph unicode="&#x2005;" horiz-adv-x="503" />
<glyph unicode="&#x2006;" horiz-adv-x="335" />
<glyph unicode="&#x2007;" horiz-adv-x="335" />
<glyph unicode="&#x2008;" horiz-adv-x="251" />
<glyph unicode="&#x2009;" horiz-adv-x="403" />
<glyph unicode="&#x200a;" horiz-adv-x="110" />
<glyph unicode="&#x2010;" horiz-adv-x="374" d="M61 750v108h248v-108h-248z" />
<glyph unicode="&#x2011;" horiz-adv-x="374" d="M61 750v108h248v-108h-248z" />
<glyph unicode="&#x2013;" horiz-adv-x="710" d="M61 750v108h584v-108h-584z" />
<glyph unicode="&#x2014;" horiz-adv-x="1150" d="M61 750v108h1039v-108h-1039z" />
<glyph unicode="&#x2018;" horiz-adv-x="243" d="M61 1296v381h113v-381h-113z" />
<glyph unicode="&#x2019;" horiz-adv-x="243" d="M61 1296v381h113v-381h-113z" />
<glyph unicode="&#x201a;" horiz-adv-x="288" d="M39 -180l47 332h141l-102 -332h-86z" />
<glyph unicode="&#x201c;" horiz-adv-x="446" d="M61 1288v385h113v-385h-113zM272 1288v385h113v-385h-113z" />
<glyph unicode="&#x201d;" horiz-adv-x="446" d="M61 1288v385h113v-385h-113zM272 1288v385h113v-385h-113z" />
<glyph unicode="&#x201e;" horiz-adv-x="657" d="M39 -180l47 332h141l-102 -332h-86zM399 -180l47 332h142l-103 -332h-86z" />
<glyph unicode="&#x2022;" horiz-adv-x="491" d="M45 829q0 84 59.5 142.5t143.5 58.5t143.5 -58.5t59.5 -142.5q0 -86 -60.5 -146t-144.5 -60t-142.5 60t-58.5 146z" />
<glyph unicode="&#x2026;" horiz-adv-x="849" d="M61 0v160h136v-160h-136zM344 0v160h135v-160h-135zM629 0v160h135v-160h-135z" />
<glyph unicode="&#x202f;" horiz-adv-x="403" />
<glyph unicode="&#x2039;" horiz-adv-x="473" d="M4 811v111l434 329v-125l-360 -262l360 -260v-129z" />
<glyph unicode="&#x203a;" horiz-adv-x="499" d="M61 477v125l361 262l-361 260v129l433 -335v-109z" />
<glyph unicode="&#x205f;" horiz-adv-x="503" />
<glyph unicode="&#x20ac;" horiz-adv-x="565" d="M31 621v112h86v168h-86v115h86v491q0 195 194 195q133 0 213 -31l-22 -147q-2 55 -191 55q-41 0 -41 -59v-504h152l-19 -115h-133v-168h105l-19 -112h-86v-455q0 -61 41 -62q45 0 45 62v303h150v-297q0 -195 -194.5 -195t-194.5 195v449h-86z" />
<glyph unicode="&#x2122;" horiz-adv-x="579" d="M18 1616v61h224v-61h-78v-248h-66v248h-80zM270 1368v309h74l59 -159l58 159h74v-309h-64v172l-65 -174l-76 180v-178h-60z" />
</font>
</defs>
</svg>
